<?xml version="1.0" encoding="UTF-8"?><svg xmlns="http://www.w3.org/2000/svg" viewBox="0 0 129.35 83.18"><defs><style>.d,.e{fill:#fff;}.f{fill:none;stroke:#fff;stroke-miterlimit:10;stroke-width:1.42px;}.g{letter-spacing:.03em;}.h{letter-spacing:0em;}.e{font-family:Isonorm, Isonorm;font-size:16.26px;}.i{letter-spacing:0em;}.j{letter-spacing:.01em;}.k{letter-spacing:0em;}</style></defs><g id="a"/><g id="b"><g id="c"><g><rect class="f" x=".71" y=".71" width="127.93" height="81.76"/><text class="e" transform="translate(121.95 55.88) rotate(-90) scale(.99 1)"><tspan x="0" y="0">.</tspan><tspan class="i" x="2.94" y="0">p</tspan><tspan class="k" x="10.44" y="0">i</tspan><tspan class="g" x="13.9" y="0">c</tspan><tspan x="19.97" y="0">tu</tspan><tspan class="j" x="32.57" y="0">r</tspan><tspan class="h" x="38.47" y="0">e</tspan><tspan x="45.41" y="0">s</tspan></text><path class="d" d="M120.74,57.7v4.5l-8.76-4.87c-.25-.14-.46-.21-.61-.21-.33,0-.5,.36-.5,1.09v11.92c0,.23,.01,.27,.02,.31h0c0,.08,.02,.13,.04,.18,.04,.12,.11,.23,.25,.32l4.26,2.89-4.26,2.87c-.2,.13-.3,.3-.3,.51,0,.15,.06,.29,.17,.4s.25,.17,.4,.17c.12,0,.24-.04,.35-.12l4.65-3.14,4.54,3.05c.11,.08,.23,.12,.35,.12,.15,0,.29-.06,.4-.17s.17-.25,.17-.41c0-.2-.1-.36-.3-.5l-4.12-2.79,4.12-2.8c.2-.13,.3-.3,.3-.49,0-.15-.06-.29-.17-.4s-.25-.17-.4-.17c-.13,0-.25,.04-.36,.12l-4.52,3.05-4.46-3.01s0-.33,0-.36v-2.55l9.26,.02c.41,0,.61-.2,.61-.59s-.2-.59-.61-.59h-9.26v-7.38l8.61,4.78c.35,.2,.61,.3,.76,.3,.33,0,.5-.26,.5-.78v-5.28c0-.41-.19-.61-.56-.61s-.58,.2-.58,.61Z"/></g></g></g></svg>