<?xml version="1.0" encoding="UTF-8"?><svg xmlns="http://www.w3.org/2000/svg" viewBox="0 0 129.35 83.18"><defs><style>.d{fill:#fff;}.e{fill:none;stroke:#fff;stroke-miterlimit:10;stroke-width:1.42px;}</style></defs><g id="a"/><g id="b"><g id="c"><g><rect class="e" x=".71" y=".71" width="127.93" height="81.76"/><g><path class="d" d="M120.67,54.42c0-.17,.07-.32,.2-.45,.14-.13,.29-.19,.46-.19s.33,.06,.46,.19c.14,.13,.2,.28,.2,.46,0,.17-.07,.32-.2,.46s-.29,.2-.46,.2c-.18,0-.34-.07-.47-.2-.13-.13-.19-.29-.19-.47Z"/><path class="d" d="M121.95,50.66h2.52c.4,0,.6,.19,.6,.56s-.2,.55-.6,.55h-9.22c-.4,0-.67-.06-.81-.18-.14-.12-.21-.37-.21-.75v-1.97c0-.98,.25-1.66,.76-2.04,.43-.32,1.01-.48,1.74-.48h2.72c1.67,0,2.5,.82,2.5,2.46v1.86Zm-1.12,0v-1.78c0-.53-.1-.91-.29-1.12-.19-.21-.55-.31-1.06-.31h-2.83c-.87,0-1.3,.44-1.3,1.33v1.88h5.48Z"/><path class="d" d="M110.88,43.8c0-.17,.07-.32,.2-.45,.13-.13,.28-.19,.46-.19,.18,0,.34,.06,.47,.18s.2,.28,.2,.46-.07,.34-.2,.47c-.13,.13-.29,.19-.47,.19-.17,0-.33-.06-.46-.19-.13-.13-.2-.28-.2-.47Zm10.47,.56h-6.52c-.4,0-.6-.18-.6-.54s.2-.56,.6-.56h6.52c.4,0,.6,.19,.6,.56s-.2,.54-.6,.54Z"/><path class="d" d="M114.23,38.92v-1.41c0-.15,.06-.29,.17-.41,.11-.12,.24-.18,.38-.18,.15,0,.29,.06,.4,.18,.11,.12,.17,.26,.17,.43v1.3c0,.49,.11,.84,.33,1.04,.22,.2,.6,.3,1.14,.3h2.55c.54,0,.92-.1,1.14-.3,.22-.2,.33-.54,.33-1.04v-1.33c0-.15,.06-.28,.17-.4,.11-.12,.25-.18,.4-.18,.37,0,.55,.24,.55,.71v1.3c0,1.56-.83,2.34-2.5,2.34h-2.72c-1.67,0-2.5-.78-2.5-2.34Z"/><path class="d" d="M114.23,33.67v-1.59c0-.41,.19-.61,.57-.61s.55,.2,.55,.61v1.59h6c.4,0,.6,.19,.6,.56s-.2,.55-.6,.55h-6v.48c0,.4-.18,.59-.55,.59s-.57-.2-.57-.59v-.48h-2.52c-.4,0-.6-.18-.6-.55s.2-.56,.6-.56h2.52Z"/><path class="d" d="M120.83,26.05h-6c-.4,0-.6-.19-.6-.56s.2-.55,.6-.55h6.33c.53,0,.8,.25,.8,.74v2.29c0,1.01-.33,1.68-.98,2.02-.47,.25-1.1,.37-1.9,.37h-4.24c-.4,0-.6-.18-.6-.55s.2-.56,.6-.56h4.23c.67,0,1.14-.11,1.39-.34s.38-.63,.38-1.22v-1.65Z"/><path class="d" d="M115.35,21.43h6c.4,0,.6,.19,.6,.56s-.2,.55-.6,.55h-6.28c-.33,0-.55-.06-.67-.17s-.18-.32-.18-.63v-1.76c0-.45,.17-.85,.5-1.2,.34-.35,.72-.53,1.15-.53,.35,0,.52,.17,.52,.5,0,.14-.03,.24-.09,.3s-.26,.19-.59,.39c-.25,.15-.37,.51-.37,1.09v.92Z"/><path class="d" d="M118.63,15.97h.57c.64,0,1.07-.1,1.29-.29,.22-.19,.33-.57,.33-1.14v-2.17c0-.41,.19-.61,.57-.61s.55,.2,.55,.61v2.18c0,1.05-.25,1.74-.75,2.09-.42,.29-1.02,.43-1.79,.43h-2.37c-.8,0-1.47-.25-2.01-.75-.54-.5-.8-1.13-.8-1.88,0-.48,.12-.93,.37-1.35s.59-.73,1.02-.95c.47-.23,1.04-.35,1.72-.35,.47,0,.76,.02,.88,.06,.27,.1,.41,.33,.41,.69v3.42Zm-1.12,0v-3.05c-1.43,0-2.15,.51-2.15,1.52,0,.76,.38,1.24,1.14,1.44,.2,.05,.53,.08,1.01,.08Z"/><path class="d" d="M114.23,7.89c0-.68,.15-1.34,.44-1.97,.11-.24,.27-.35,.49-.35,.38,0,.57,.18,.57,.55,0,.11-.09,.47-.26,1.09-.08,.27-.11,.51-.11,.74,0,.36,.08,.67,.24,.91,.16,.24,.36,.36,.59,.36,.26,0,.5-.15,.72-.45,.06-.08,.3-.48,.7-1.22,.43-.81,.75-1.36,.96-1.64,.38-.5,.88-.75,1.51-.75,.55,0,1,.24,1.36,.71s.53,1.07,.53,1.8c0,.65-.15,1.29-.44,1.93-.29,.63-.59,.95-.89,.95-.14,0-.27-.05-.38-.15-.11-.1-.17-.22-.17-.34,0-.16,.09-.4,.26-.71,.36-.64,.54-1.26,.54-1.86,0-.8-.26-1.2-.78-1.2-.24,0-.48,.15-.71,.45-.11,.14-.38,.62-.82,1.45-.44,.83-.83,1.4-1.16,1.7-.34,.31-.74,.46-1.22,.46-.56,0-1.03-.23-1.39-.68-.36-.45-.54-1.03-.54-1.74Z"/></g><path class="d" d="M120.74,57.7v4.5l-8.76-4.87c-.25-.14-.46-.21-.61-.21-.33,0-.5,.36-.5,1.09v11.92c0,.23,.01,.27,.02,.31h0c0,.08,.02,.13,.04,.18,.04,.12,.11,.23,.25,.32l4.26,2.89-4.26,2.87c-.2,.13-.3,.3-.3,.51,0,.15,.06,.29,.17,.4s.25,.17,.4,.17c.12,0,.24-.04,.35-.12l4.65-3.14,4.54,3.05c.11,.08,.23,.12,.35,.12,.15,0,.29-.06,.4-.17s.17-.25,.17-.41c0-.2-.1-.36-.3-.5l-4.12-2.79,4.12-2.8c.2-.13,.3-.3,.3-.49,0-.15-.06-.29-.17-.4s-.25-.17-.4-.17c-.13,0-.25,.04-.36,.12l-4.52,3.05-4.46-3.01s0-.33,0-.36v-2.55l9.26,.02c.41,0,.61-.2,.61-.59s-.2-.59-.61-.59h-9.26v-7.38l8.61,4.78c.35,.2,.61,.3,.76,.3,.33,0,.5-.26,.5-.78v-5.28c0-.41-.19-.61-.56-.61s-.58,.2-.58,.61Z"/></g></g></g></svg>